:SAMPLES-PER-SECOND 30
:FULLY-SPECIFIED
:DEGREES
94
root  -29.1796 40.7092 2.6658 41.3495 -86.4349 -35.9509
RightUpLeg  -8.78243 -15.1332 -4.9759
RightLeg  12.0162 -11.6214 2.29399
RightFoot  -4.28222 -0.17271 2.36949
RightToes  0.000482159 0.542163 -0.142577
Spine  24.5097 5.28017 12.4045
Spine1  2.27927 12.458 -21.181
HEad  -27.0129 -9.96705 -2.10068
LeftShoulder1  6.56814 -13.0456 -33.6435
LeftArm  -20.7424 -1.59499 -27.768
LeftForeArm  45.7603 -50.7412 -10.1979
LeftHand  -0.25398 0.0180481 5.50724
RightShoulder  3.35109 10.2402 17.8596
RightArm  -27.9169 49.9707 27.0561
RightForeArm  11.9027 64.1655 23.688
RightHand  -2.24519 4.0133 -27.519
LeftUpLeg  -19.2108 5.70549 5.80481
LeftLeg  6.24203 0.409303 -2.2158
LeftFoot  8.55219 -0.131851 0.45306
LeftToes  1.06244e-005 4.65856e-005 -8.18505e-006
95
root  -29.6032 40.7672 2.99895 20.7179 -85.1285 -15.3552
RightUpLeg  -7.03525 -14.2768 -6.77894
RightLeg  10.9794 -14.084 2.37523
RightFoot  -4.34694 -0.236856 3.42029
RightToes  0.000482159 0.542163 -0.142577
Spine  23.9138 4.95605 11.0616
Spine1  2.75917 11.3225 -18.5136
HEad  -24.6436 -10.6688 -1.4696
LeftShoulder1  6.76903 -13.1222 -34.655
LeftArm  -17.6121 1.06402 -28.3712
LeftForeArm  45.3991 -49.6538 -9.78156
LeftHand  -0.25398 0.0180481 5.50724
RightShoulder  3.85653 9.9247 22.4923
RightArm  -30.422 43.7935 24.931
RightForeArm  49.838 77.6972 59.351
RightHand  -1.49859 1.11961 -26.4768
LeftUpLeg  -18.5443 4.27828 4.39357
LeftLeg  5.84897 -0.186389 -2.24363
LeftFoot  8.42717 -0.199911 0.851948
LeftToes  1.06244e-005 4.65856e-005 -8.18505e-006
96
root  -29.9949 40.8007 3.36325 9.92888 -83.0526 -4.55107
RightUpLeg  -5.43485 -13.3817 -8.27111
RightLeg  10.211 -17.0085 2.14598
RightFoot  -4.40289 -0.302707 4.49209
RightToes  0.000482159 0.542163 -0.142577
Spine  23.2565 4.27026 9.70993
Spine1  3.20148 9.69498 -15.5587
HEad  -22.4914 -11.288 -0.960271
LeftShoulder1  7.12472 -13.2412 -36.4505
LeftArm  -14.6413 5.0265 -27.6931
LeftForeArm  45.6106 -47.5399 -8.95787
LeftHand  -0.25398 0.0180481 5.50724
RightShoulder  3.86996 8.96411 24.9088
RightArm  -35.8407 38.9378 20.8242
RightForeArm  119.953 76.8324 128.407
RightHand  -1.20578 0.0437291 -25.5419
LeftUpLeg  -18.1515 2.96578 2.87883
LeftLeg  5.80492 -1.21277 -2.22216
LeftFoot  8.25649 -0.295757 1.42223
LeftToes  1.06244e-005 4.65856e-005 -8.18505e-006
97
root  -30.3359 40.8163 3.73564 5.21968 -81.0523 0.25882
RightUpLeg  -4.07709 -12.9493 -9.50251
RightLeg  9.55256 -19.2302 1.99333
RightFoot  -4.3495 -0.358178 5.37261
RightToes  0.000482159 0.542163 -0.142577
Spine  22.7323 3.51626 8.62237
Spine1  3.63637 8.12292 -12.9438
HEad  -20.8863 -12.0229 -0.155887
LeftShoulder1  7.51029 -13.3055 -38.5082
LeftArm  -12.6133 9.1692 -26.5704
LeftForeArm  46.4287 -44.7021 -7.923
LeftHand  -0.25398 0.0180481 5.50724
RightShoulder  3.63159 8.00874 25.4424
RightArm  -44.6285 36.112 17.154
RightForeArm  142.804 68.2211 152.496
RightHand  -1.25483 0.136206 -26.0738
LeftUpLeg  -17.9118 1.87927 1.49064
LeftLeg  5.95542 -2.23145 -2.2165
LeftFoot  7.86425 -0.429059 2.25283
LeftToes  1.06244e-005 4.65856e-005 -8.18505e-006
98
root  -30.6056 40.8311 4.09269 2.27893 -80.1837 3.40562
RightUpLeg  -3.1906 -12.7024 -10.5551
RightLeg  8.81153 -20.1842 1.96501
RightFoot  -4.13836 -0.406107 5.99713
RightToes  0.000482159 0.542163 -0.142577
Spine  22.493 3.11053 8.43009
Spine1  4.22394 7.46257 -11.7764
HEad  -20.0742 -13.6677 1.20741
LeftShoulder1  7.83007 -13.311 -40.3017
LeftArm  -11.3854 12.2809 -25.5613
LeftForeArm  46.2997 -41.3065 -6.87904
LeftHand  -0.25398 0.0180481 5.50724
RightShoulder  3.47162 7.37268 25.8369
RightArm  -54.7672 35.575 15.4641
RightForeArm  150.21 60.99 160.394
RightHand  -1.80787 1.84818 -28.5642
LeftUpLeg  -17.5679 1.41505 0.482467
LeftLeg  5.80612 -2.64944 -2.55396
LeftFoot  7.55162 -0.531443 2.91612
LeftToes  1.06244e-005 4.65856e-005 -8.18505e-006
99
root  -30.7643 40.8582 4.44059 -0.626099 -81.1419 6.67052
RightUpLeg  -3.16991 -12.4681 -11.3816
RightLeg  8.04142 -19.5985 1.89204
RightFoot  -3.63301 -0.453773 6.36107
RightToes  0.000482159 0.542163 -0.142577
Spine  22.5382 3.21497 9.66979
Spine1  5.16091 8.20326 -12.7839
HEad  -20.0903 -16.284 3.14542
LeftShoulder1  8.08652 -13.3471 -41.6376
LeftArm  -10.6587 13.8693 -24.7865
LeftForeArm  44.4191 -37.6807 -5.97389
LeftHand  -0.25398 0.0180481 5.50724
RightShoulder  3.52446 7.29312 26.5902
RightArm  -60.2899 37.3882 15.3144
RightForeArm  153.551 58.159 163.143
RightHand  -2.76998 4.7664 -31.3039
LeftUpLeg  -17.0805 1.58413 -0.0113782
LeftLeg  5.04781 -1.67254 -3.30586
LeftFoot  7.5376 -0.627768 3.49775
LeftToes  1.06244e-005 4.65856e-005 -8.18505e-006
100
root  -30.7885 40.8934 4.80152 -11.2724 -84.1205 17.768
RightUpLeg  -4.17358 -12.3278 -11.9717
RightLeg  7.35361 -17.0455 1.81576
RightFoot  -2.71423 -0.510079 6.51037
RightToes  0.000482159 0.542163 -0.142577
Spine  22.8797 3.65909 11.9274
Spine1  6.23502 10.05 -15.6293
HEad  -20.518 -18.6518 4.94854
LeftShoulder1  8.20677 -13.3717 -42.2369
LeftArm  -10.8968 14.7891 -24.5479
LeftForeArm  41.2872 -34.3049 -5.28167
LeftHand  -0.25398 0.0180481 5.50724
RightShoulder  3.46626 7.50687 25.3967
RightArm  -56.4841 43.046 15.5503
RightForeArm  144.575 67.5211 151.038
RightHand  -3.2152 6.0676 -32.2238
LeftUpLeg  -16.5811 2.06311 -0.0124752
LeftLeg  3.96203 1.2354 -4.18348
LeftFoot  7.56061 -0.750623 4.23105
LeftToes  1.06244e-005 4.65856e-005 -8.18505e-006
101
root  -30.7235 40.9158 5.16312 -14.7989 -88.7347 21.6338
RightUpLeg  -5.7394 -12.3072 -12.4274
RightLeg  6.71747 -12.7492 1.8327
RightFoot  -1.57292 -0.582423 6.67974
RightToes  0.000482159 0.542163 -0.142577
Spine  23.6617 4.14041 14.1919
Spine1  6.78441 12.212 -19.3629
HEad  -20.8201 -19.8653 6.03186
LeftShoulder1  8.07791 -13.2903 -41.7396
LeftArm  -12.1029 16.0959 -25.1146
LeftForeArm  38.1344 -31.4843 -4.77589
LeftHand  -0.25398 0.0180481 5.50724
RightShoulder  2.85911 7.21774 20.2145
RightArm  -49.4695 52.8161 14.9083
RightForeArm  61.089 75.8565 60.1756
RightHand  -2.6638 4.59974 -30.1701
LeftUpLeg  -16.1795 2.77991 0.199099
LeftLeg  3.20535 5.34236 -4.90068
LeftFoot  7.284 -0.831982 4.79987
LeftToes  1.06244e-005 4.65856e-005 -8.18505e-006
102
root  -30.6667 40.9068 5.47589 -136.751 -86.1483 143.766
RightUpLeg  -7.05559 -12.3162 -12.9057
RightLeg  6.09471 -8.52368 1.88655
RightFoot  -0.684119 -0.667771 7.10002
RightToes  0.000482159 0.542163 -0.142577
Spine  24.7911 4.5011 15.8763
Spine1  6.49647 13.9485 -22.7353
HEad  -21.46 -20.8008 6.88423
LeftShoulder1  7.84539 -13.2207 -40.6265
LeftArm  -12.876 17.52 -25.9617
LeftForeArm  36.2078 -29.1095 -4.33752
LeftHand  -0.25398 0.0180481 5.50724
RightShoulder  1.89097 6.00856 12.8567
RightArm  -42.1855 63.7354 12.9909
RightForeArm  17.4984 40.923 6.28442
RightHand  -1.19152 0.696313 -22.8243
LeftUpLeg  -15.9964 3.48587 0.25906
LeftLeg  3.08767 8.9634 -5.39273
LeftFoot  6.76774 -0.837228 4.99145
LeftToes  1.06244e-005 4.65856e-005 -8.18505e-006
103
root  -30.6899 40.8849 5.70542 -151.218 -84.4717 158.571
RightUpLeg  -7.59922 -12.3559 -13.5329
RightLeg  5.35457 -6.62961 2.00311
RightFoot  -0.247222 -0.744189 7.6348
RightToes  0.000482159 0.542163 -0.142577
Spine  25.5515 4.77274 16.8072
Spine1  6.08888 14.8313 -24.1632
HEad  -23.4932 -22.6242 8.41421
LeftShoulder1  7.83187 -13.3819 -40.1263
LeftArm  -12.2535 18.1624 -26.2777
LeftForeArm  35.5833 -26.993 -3.90755
LeftHand  -0.25398 0.0180481 5.50724
RightShoulder  1.34403 4.91794 8.63104
RightArm  -30.6606 69.9699 11.9539
RightForeArm  19.608 16.1738 3.58238
RightHand  -1.02415 1.16534 -18.2665
LeftUpLeg  -16.1477 3.55867 -0.0915409
LeftLeg  2.98965 10.7273 -5.68827
LeftFoot  6.48107 -0.863362 5.25013
LeftToes  1.06244e-005 4.65856e-005 -8.18505e-006
104
root  -30.7986 40.876 5.86816 -142.681 -85.135 150.698
RightUpLeg  -7.38831 -12.573 -14.1355
RightLeg  4.42354 -7.34669 2.23179
RightFoot  -0.00431576 -0.798444 8.03118
RightToes  0.000482159 0.542163 -0.142577
Spine  25.3064 4.88023 16.9821
Spine1  6.33368 14.6731 -22.8647
HEad  -26.6845 -24.5689 10.1888
LeftShoulder1  8.09907 -13.7338 -40.6942
LeftArm  -11.1016 18.2667 -26.1987
LeftForeArm  34.8245 -25.2423 -3.57519
LeftHand  -0.25398 0.0180481 5.50724
RightShoulder  1.6083 5.39443 10.82
RightArm  -25.727 68.3064 11.9787
RightForeArm  21.2582 14.4489 5.41443
RightHand  -1.90865 4.95894 -21.3411
LeftUpLeg  -16.6001 2.90779 -0.759718
LeftLeg  2.53356 10.4761 -5.73422
LeftFoot  6.56476 -0.958237 5.82265
LeftToes  1.06244e-005 4.65856e-005 -8.18505e-006
105
root  -30.9534 40.8704 5.99628 -124.513 -86.55 133.183
RightUpLeg  -6.8948 -12.9407 -14.6118
RightLeg  3.77745 -8.93096 2.50105
RightFoot  0.136057 -0.833754 8.29145
RightToes  0.000482159 0.542163 -0.142577
Spine  24.257 4.64845 16.3777
Spine1  7.11934 13.5631 -19.9261
HEad  -29.4115 -25.1881 11.0291
LeftShoulder1  8.38585 -14.0131 -41.5298
LeftArm  -10.3643 18.7825 -26.4099
LeftForeArm  32.8893 -23.9868 -3.41827
LeftHand  -0.25398 0.0180481 5.50724
RightShoulder  2.337 6.73495 16.128
RightArm  -20.4435 61.9539 12.5894
RightForeArm  13.4135 28.0712 5.14511
RightHand  -2.71397 6.99961 -25.5362
LeftUpLeg  -17.0439 2.00408 -1.44922
LeftLeg  2.13934 9.39766 -5.49949
LeftFoot  6.66695 -1.033 6.25619
LeftToes  1.06244e-005 4.65856e-005 -8.18505e-006
106
root  -31.1135 40.8629 6.10783 -105.29 -87.0479 114.263
RightUpLeg  -6.49428 -13.321 -15.1239
RightLeg  3.63436 -9.73363 2.65751
RightFoot  0.146188 -0.859828 8.54325
RightToes  0.000482159 0.542163 -0.142577
Spine  23.1319 4.13404 15.2757
Spine1  7.968 12.1057 -17.2419
HEad  -30.7123 -24.6037 10.7109
LeftShoulder1  8.48875 -14.1032 -41.846
LeftArm  -9.66422 19.6715 -26.9024
LeftForeArm  31.0433 -23.1454 -3.37674
LeftHand  -0.25398 0.0180481 5.50724
RightShoulder  3.0126 7.77633 20.3476
RightArm  -22.0044 56.3332 11.6443
RightForeArm  12.2651 41.0687 8.91414
RightHand  -2.46414 5.84221 -25.4329
LeftUpLeg  -17.0748 1.25678 -2.05485
LeftLeg  1.87464 8.84534 -5.19185
LeftFoot  6.63808 -1.04011 6.31184
LeftToes  1.06244e-005 4.65856e-005 -8.18505e-006
107
root  -31.2504 40.8488 6.20711 -101.277 -86.674 110.158
RightUpLeg  -6.32191 -13.6858 -15.7682
RightLeg  3.98771 -9.47129 2.53809
RightFoot  -0.0421629 -0.877482 8.85048
RightToes  0.000482159 0.542163 -0.142577
Spine  22.5313 3.63116 14.0257
Spine1  8.47148 10.9301 -15.7045
HEad  -31.0004 -23.774 10.0606
LeftShoulder1  8.47787 -14.0943 -41.8111
LeftArm  -8.63324 20.2542 -27.0656
LeftForeArm  31.0948 -22.7179 -3.33984
LeftHand  -0.25398 0.0180481 5.50724
RightShoulder  3.45651 8.3205 23.0272
RightArm  -21.7484 53.6277 10.2903
RightForeArm  13.7621 47.2003 11.0886
RightHand  -2.18557 4.82731 -24.8244
LeftUpLeg  -16.6786 0.759876 -2.65539
LeftLeg  1.6986 9.17382 -5.02129
LeftFoot  6.47034 -1.03558 6.35021
LeftToes  1.06244e-005 4.65856e-005 -8.18505e-006
108
root  -31.3505 40.8358 6.3122 -107.757 -86.0437 116.256
RightUpLeg  -6.13159 -13.9379 -16.381
RightLeg  4.31355 -8.73135 2.27275
RightFoot  -0.184008 -0.8939 9.11992
RightToes  0.000482159 0.542163 -0.142577
Spine  22.5818 3.27061 12.9697
Spine1  8.52159 10.1505 -14.9343
HEad  -30.8065 -23.1085 9.70708
LeftShoulder1  8.46971 -14.0868 -41.7869
LeftArm  -7.91143 20.3982 -26.8479
LeftForeArm  32.3992 -22.7414 -3.28559
LeftHand  -0.25398 0.0180481 5.50724
RightShoulder  3.65298 8.44351 24.436
RightArm  -23.8342 52.3587 9.01346
RightForeArm  16.6648 50.5202 12.3679
RightHand  -2.20235 4.82881 -24.9968
LeftUpLeg  -16.0739 0.540139 -3.16436
LeftLeg  1.68395 9.91398 -5.03984
LeftFoot  6.17103 -1.06246 6.64635
LeftToes  1.06244e-005 4.65856e-005 -8.18505e-006
